<?xml version="1.0" encoding="UTF-8"?>
<svg width="54px" height="60px" viewBox="0 0 54 60" version="1.1" xmlns="http://www.w3.org/2000/svg" xmlns:xlink="http://www.w3.org/1999/xlink">
    <!-- Generator: Sketch 63.1 (92452) - https://sketch.com -->
    <title>Slice 1</title>
    <desc>Created with Sketch.</desc>
    <g id="Page-1" stroke="none" stroke-width="1" fill="none" fill-rule="evenodd">
        <g id="coronavirus" fill="#5583AB" fill-rule="nonzero">
            <path d="M41.2,24.6 C40.3,23.3 38.8,23.8 37.9,24 C37.7,24.1 37.5,24.1 37.3,24.2 C37.3,24 37.4,23.8 37.5,23.6 C37.8,22.6 38.3,21.2 37,20.3 C35.8,19.5 34.6,20.4 33.8,21 C33.7,21.1 33.5,21.2 33.4,21.3 C33.4,21.1 33.4,20.9 33.4,20.8 C33.4,19.9 33.3,18.3 31.8,17.9 C30.4,17.6 29.6,18.9 29,19.7 C28.9,19.8 28.8,20 28.7,20.1 C28.6,19.9 28.6,19.8 28.5,19.6 C28.1,18.7 27.6,17.3 26,17.4 C24.5,17.6 24.2,19.1 24,20 C24,20.1 23.9,20.3 23.9,20.5 C23.8,20.4 23.7,20.2 23.6,20.1 C22.9,19.3 21.9,18.2 20.5,18.8 C19.2,19.5 19.4,21 19.5,22 C19.5,22.2 19.6,22.4 19.6,22.6 C19.4,22.5 19.3,22.4 19.1,22.4 C18.3,22 16.8,21.2 15.7,22.3 C14.7,23.4 15.4,24.7 15.9,25.6 C16,25.8 16.1,26.1 16.2,26.3 C16,26.3 15.7,26.3 15.5,26.3 C14.5,26.2 12.9,26.1 12.3,27.6 C12.1,28.1 12.3,28.7 12.8,28.9 C13.3,29.1 13.9,28.9 14.1,28.4 C14.2,28.2 14.9,28.3 15.3,28.3 C16.2,28.4 17.3,28.4 17.9,27.5 C18.5,26.6 18,25.5 17.6,24.7 C17.5,24.4 17.2,23.9 17.2,23.7 C17.4,23.7 17.9,24 18.2,24.1 C19,24.5 20,25 20.9,24.4 C21.8,23.8 21.7,22.6 21.5,21.7 C21.5,21.4 21.4,20.9 21.4,20.7 C21.6,20.9 21.9,21.2 22.1,21.4 C22.7,22.1 23.5,22.9 24.5,22.6 C25.6,22.3 25.8,21.2 26,20.3 C26.1,20 26.2,19.6 26.2,19.4 C26.3,19.6 26.5,20 26.6,20.3 C26.9,21.2 27.4,22.2 28.4,22.3 C29.5,22.4 30.1,21.4 30.6,20.7 C30.7,20.5 31,20.1 31.1,19.9 C31.2,20.2 31.2,20.6 31.2,20.9 C31.2,21.8 31.3,23 32.3,23.4 C33.3,23.9 34.2,23.2 34.9,22.6 C35.1,22.4 35.5,22.1 35.7,22 C35.7,22.3 35.5,22.7 35.4,23 C35.1,23.9 34.8,25 35.5,25.7 C36.3,26.5 37.4,26.2 38.2,26 C38.5,25.9 39.2,25.7 39.3,25.7 C39.3,25.9 38.9,26.4 38.7,26.7 C38.2,27.4 37.4,28.4 37.9,29.4 C38.1,29.8 38.4,30 38.8,30 C38.9,30 39.1,30 39.2,29.9 C39.7,29.7 39.9,29.2 39.7,28.7 C39.8,28.5 40,28.1 40.2,27.9 C41.1,27.1 42,25.9 41.2,24.6 Z" id="Path"></path>
            <path d="M51.9,40.9 C50.8,40.2 49.4,40.4 48.5,41.2 L45.7,39.6 C46.7,37.6 47.4,35.5 47.8,33.2 L51.8,33.6 L52,31.6 L48,31.2 C48,30.8 48.1,30.4 48.1,30 C48.1,29.6 48.1,29.2 48,28.8 L52,28.4 L51.8,26.4 L47.8,26.8 C47.5,24.5 46.7,22.4 45.7,20.4 L48.5,18.8 C49.4,19.6 50.8,19.8 51.9,19.1 C53.3,18.3 53.8,16.4 53,15 C52.2,13.6 50.3,13.1 48.9,13.9 C47.8,14.6 47.2,15.8 47.5,17 L44.7,18.6 C43.5,16.7 41.9,15 40.2,13.6 L42.6,10.3 L41,9.1 L38.6,12.4 C37.9,12 37.2,11.6 36.5,11.2 L38.1,7.5 L36.3,6.7 L34.7,10.4 C32.6,9.6 30.4,9.1 28.1,9 L28.1,5.8 C29.3,5.4 30.1,4.3 30.1,3 C30.1,1.3 28.8,0 27.1,0 C25.4,0 24.1,1.3 24.1,3 C24.1,4.3 24.9,5.4 26.1,5.8 L26.1,9 C23.8,9.1 21.6,9.6 19.5,10.4 L17.9,6.7 L16.1,7.5 L17.7,11.2 C17,11.6 16.3,12 15.6,12.4 L13.2,9.1 L11.6,10.3 L14,13.6 C12.2,15 10.7,16.7 9.5,18.6 L6.6,17 C6.8,15.8 6.3,14.5 5.2,13.9 C3.7,13.1 1.8,13.6 1,15 C0.2,16.4 0.7,18.3 2.1,19.1 C3.2,19.8 4.6,19.6 5.5,18.8 L8.3,20.4 C7.3,22.4 6.6,24.5 6.2,26.8 L2.2,26.4 L2,28.4 L6,28.8 C6,29.2 5.9,29.6 5.9,30 C5.9,30.4 5.9,30.8 6,31.2 L2,31.6 L2.2,33.6 L6.2,33.2 C6.5,35.5 7.3,37.6 8.3,39.6 L5.5,41.2 C4.6,40.4 3.2,40.2 2.1,40.9 C0.7,41.7 0.2,43.6 1,45 C1.8,46.4 3.7,46.9 5.1,46.1 C6.2,45.4 6.8,44.2 6.5,43 L9.3,41.4 C10.5,43.3 12.1,45 13.8,46.4 L11.4,49.7 L13,50.9 L15.4,47.6 C16.1,48 16.8,48.4 17.5,48.8 L15.9,52.5 L17.7,53.3 L19.3,49.6 C21.4,50.4 23.6,50.9 25.9,51 L25.9,54.2 C24.7,54.6 23.9,55.7 23.9,57 C23.9,58.7 25.2,60 26.9,60 C28.6,60 29.9,58.7 29.9,57 C29.9,55.7 29.1,54.6 27.9,54.2 L27.9,51 C30.2,50.9 32.4,50.4 34.5,49.6 L36.1,53.3 L37.9,52.5 L36.3,48.8 C37,48.4 37.7,48 38.4,47.6 L40.8,50.9 L42.4,49.7 L40,46.4 C41.8,45 43.3,43.3 44.5,41.4 L47.3,43 C47.1,44.2 47.6,45.5 48.7,46.1 C50.1,46.9 52,46.4 52.8,45 C53.6,43.6 53.3,41.7 51.9,40.9 Z M39,44.8 L37.8,43.2 L36.2,44.4 L37.4,46 C36.8,46.4 36.3,46.7 35.7,47 L34.9,45.2 L33,45.9 L33.8,47.7 C32,48.4 30,48.8 28,48.9 L28,47 L26,47 L26,48.9 C24,48.8 22,48.4 20.2,47.7 L21,45.9 L19.2,45.1 L18.4,46.9 C17.8,46.6 17.2,46.3 16.7,45.9 L17.9,44.3 L16.3,43.1 L15,44.8 C13.5,43.5 12.1,42.1 11,40.4 L12.7,39.4 L11.7,37.7 L10,38.7 C9.1,37 8.5,35.1 8.2,33.1 L10.1,32.9 L9.9,30.9 L8.1,31 C8.1,30.7 8,30.3 8,30 C8,29.7 8,29.3 8.1,29 L10,29.2 L10.2,27.2 L8.3,27 C8.6,25 9.2,23.1 10.1,21.4 L11.8,22.4 L12.8,20.7 L11.1,19.7 C12.2,18 13.5,16.5 15.1,15.3 L16.3,16.9 L17.9,15.7 L16.7,14.1 C17.3,13.7 17.8,13.4 18.4,13.1 L19.2,14.9 L21,14.1 L20.2,12.3 C22,11.6 24,11.2 26,11.1 L26,13 L28,13 L28,11.1 C30,11.2 32,11.6 33.8,12.3 L33,14.1 L34.8,14.9 L35.6,13.1 C36.2,13.4 36.8,13.7 37.3,14.1 L36.1,15.7 L37.7,16.9 L38.9,15.3 C40.4,16.6 41.8,18 42.9,19.7 L41.2,20.7 L42.2,22.4 L43.9,21.4 C44.8,23.1 45.4,25 45.7,27 L43.8,27.2 L44,29.2 L45.9,29 C45.9,29.3 46,29.7 46,30 C46,30.3 46,30.7 45.9,31 L44,30.8 L43.8,32.8 L45.7,33 C45.4,35 44.8,36.9 43.9,38.6 L42.2,37.6 L41.2,39.3 L42.9,40.3 C41.8,42 40.5,43.5 39,44.8 Z" id="Shape"></path>
        </g>
    </g>
</svg>